<?xml version="1.0" encoding="UTF-8"?>
<svg version="1.1" xmlns="http://www.w3.org/2000/svg" width="584" height="196">
<path d="M0 0 C192.72 0 385.44 0 584 0 C584 64.68 584 129.36 584 196 C391.28 196 198.56 196 0 196 C0 131.32 0 66.64 0 0 Z " fill="#3BB6FE" transform="translate(0,0)"/>
<path d="M0 0 C105.27 0 210.54 0 319 0 C318.67 0.66 318.34 1.32 318 2 C317.34 2 316.68 2 316 2 C314.7948203 5.6155391 314.04199574 9.27522224 315 13 C318.82432715 16.78859403 321.36526213 17.50123293 326.6862793 17.51416016 C327.33728607 17.52128525 327.98829285 17.52841034 328.6590271 17.53575134 C330.79773746 17.55495655 332.93545145 17.5467701 335.07421875 17.5390625 C336.56445253 17.54897155 338.05467406 17.5609136 339.5448761 17.57479858 C343.45843741 17.60711536 347.37171878 17.61754967 351.28540039 17.62164307 C357.55998793 17.6304118 363.83434634 17.66579826 370.10874367 17.7138176 C372.30139802 17.72643122 374.49376376 17.72564285 376.68644714 17.72354126 C378.02493516 17.73011886 379.36342116 17.73712458 380.7019043 17.74462891 C381.87262985 17.74588776 383.04335541 17.74714661 384.2495575 17.7484436 C387 18 387 18 389 20 C389.5412844 25.68348624 389.5412844 25.68348624 389 28 C386.14409615 30.62205803 384.24876413 31.37600233 380.40110779 31.39199829 C379.02364883 31.40863777 379.02364883 31.40863777 377.61836243 31.4256134 C376.61822617 31.42260727 375.6180899 31.41960114 374.58764648 31.41650391 C373.52874207 31.42508926 372.46983765 31.43367462 371.37884521 31.44252014 C367.87619418 31.46762858 364.37382663 31.47196341 360.87109375 31.4765625 C358.44018179 31.49086804 356.00927796 31.50662424 353.5783844 31.52377319 C347.17625546 31.56567373 340.77417695 31.59063917 334.37194824 31.61126709 C324.12011962 31.64705036 313.86841545 31.70799174 303.61671638 31.76975632 C300.02983252 31.7888826 296.44298189 31.80058747 292.85606384 31.81118774 C290.66502816 31.82139725 288.47399315 31.83175495 286.28295898 31.84228516 C285.28079849 31.84332748 284.278638 31.84436981 283.24610901 31.84544373 C281.87287979 31.85362373 281.87287979 31.85362373 280.47190857 31.86196899 C279.67606574 31.86452509 278.88022291 31.86708118 278.06026363 31.86971474 C275.80041136 31.92446016 275.80041136 31.92446016 273 33 C271.78739123 36.63782632 271.60455448 39.17735999 272 43 C273.64328192 45.65544231 274.31918767 46.58074146 277 48 C281.57933141 48.76815875 286.15659209 48.6910207 290.78637695 48.65942383 C292.20582995 48.66787988 293.62527133 48.6785253 295.04469299 48.69119263 C298.89154362 48.71933025 302.73783648 48.71686913 306.584759 48.70889878 C310.60738613 48.70577321 314.62983577 48.7308095 318.65238953 48.75285339 C326.26668785 48.79030399 333.88080756 48.80244197 341.49518889 48.8054778 C350.16511711 48.81016754 358.83486629 48.8430881 367.50471556 48.87837565 C385.3364598 48.9503212 403.16812037 48.98682868 421 49 C421 49.99 421 50.98 421 52 C401.85964803 52.37700512 382.71923775 52.7509214 363.57876301 53.12164211 C354.68130691 53.29403576 345.78386899 53.46726959 336.88647461 53.64282227 C326.54546428 53.84674144 316.20440156 54.04782941 305.86328125 54.24609375 C304.57353008 54.2708658 304.57353008 54.2708658 303.25772333 54.29613829 C283.09615502 54.68257283 262.93470462 55.03169653 242.77099609 55.28564453 C241.90522221 55.29658697 241.03944834 55.3075294 240.14743888 55.31880343 C231.87204937 55.42284961 223.59663139 55.52268327 215.32106322 55.61145312 C194.87046446 55.83251343 174.44011739 56.30089388 154 57 C163.4998588 57.95808406 172.97264286 58.22235182 182.51196289 58.35717773 C184.1457221 58.38327928 185.77947545 58.40974889 187.41322327 58.43655396 C190.9225306 58.49339695 194.43186428 58.54775879 197.94124031 58.6001873 C203.57910104 58.68454154 209.21685024 58.7752208 214.854599 58.86671448 C227.92308603 59.07786615 240.99169381 59.28110518 254.06031036 59.48405457 C268.76033808 59.71240963 283.46030031 59.9444186 298.16015625 60.18359375 C299.60229453 60.20696092 299.60229453 60.20696092 301.07356691 60.23080015 C340.39054109 60.86945492 379.69509486 61.84285151 419 63 C419.09765625 69.15234375 419.09765625 69.15234375 419 71 C416.98878544 73.01121456 412.89495725 72.17479548 410.13598633 72.18945312 C408.89596359 72.20189308 408.89596359 72.20189308 407.63088989 72.21458435 C405.8215869 72.23205409 404.0122604 72.24720159 402.20292091 72.26036072 C399.29812173 72.28149673 396.39342896 72.30854055 393.48869324 72.33703613 C388.31321247 72.38679663 383.1377012 72.43119373 377.9621582 72.47393799 C368.83539232 72.54945789 359.7086831 72.63050687 350.58203125 72.71875 C349.57108524 72.72846832 348.56013924 72.73818665 347.5185585 72.74819946 C334.65773418 72.87557476 321.80514863 73.09435696 308.94921875 73.46875 C253.23377401 75.07571717 197.47202987 75.35864364 141.73888814 75.9627918 C131.3725778 76.07522273 121.00628781 76.18948258 110.63999856 76.30383885 C89.42668658 76.53781654 68.21335195 76.76967705 47 77 C47.9827336 77.01030746 48.96546721 77.02061493 49.97798061 77.03123474 C134.14161747 77.91606323 134.14161747 77.91606323 167.56640625 78.5 C168.73321804 78.52036819 169.90002983 78.54073639 171.10219955 78.5617218 C176.90638077 78.66369002 182.71052432 78.76763812 188.51464844 78.87280273 C201.10467145 79.10073384 213.69486382 79.31875014 226.28515625 79.53125 C227.54492405 79.5525145 228.80469185 79.57377899 230.10263443 79.59568787 C247.64998137 79.88914262 265.19703401 80.12051252 282.74609375 80.28125 C283.7999634 80.29090853 284.85383305 80.30056705 285.93963814 80.31051826 C294.11856691 80.38473434 302.29752758 80.45522749 310.47649002 80.52561569 C345.67299739 80.8310949 380.82817558 81.63550315 416 83 C416 85.64 416 88.28 416 91 C386.58741666 92.31518125 357.18838794 93.20097415 327.75 93.5625 C326.97485424 93.57203705 326.19970848 93.5815741 325.40107346 93.59140015 C303.89421322 93.85285451 282.38660219 94.03456721 260.87890625 94.2109375 C258.64510089 94.22930667 256.41129555 94.24767828 254.17749023 94.26605225 C253.05428753 94.27528088 251.93108482 94.28450951 250.77384567 94.29401779 C248.47050336 94.31294607 246.16716118 94.33189001 243.86381912 94.35084915 C237.99790012 94.39911335 232.13197886 94.44705426 226.26605225 94.49438477 C181.63334269 94.85695868 137.00462913 95.43353087 92.375 96.0625 C91.14357859 96.0798464 91.14357859 96.0798464 89.88727999 96.09754324 C68.924775 96.39296477 47.96234809 96.69364118 27 97 C71.98258889 97.7594004 71.98258889 97.7594004 116.96875 98.24609375 C118.5109789 98.2580522 118.5109789 98.2580522 120.08436394 98.27025223 C125.36758504 98.31077538 130.650816 98.34983542 135.93405151 98.38842773 C180.50339206 98.71739484 225.06876474 99.25157647 269.63441193 99.90122849 C274.88532616 99.97771973 280.13626106 100.05264572 285.38720703 100.12692261 C292.50629105 100.22777794 299.62530877 100.33261955 306.74429512 100.44013786 C309.35593803 100.47949632 311.96758871 100.51731085 314.5792675 100.5543232 C329.26577175 100.76391755 343.92878221 101.1450238 358.6033783 101.77487183 C364.78817378 102.03945118 370.97058253 102.20668513 377.16015625 102.31640625 C378.21238876 102.33718735 379.26462128 102.35796844 380.34873962 102.37937927 C383.58661932 102.4427989 386.82455075 102.50275024 390.0625 102.5625 C392.30924934 102.60588483 394.55599417 102.64950384 396.80273438 102.69335938 C402.2017743 102.79825309 407.60086122 102.90033063 413 103 C413.09765625 109.15234375 413.09765625 109.15234375 413 111 C411.14311798 112.85688202 408.06276398 112.18700709 405.57785034 112.22741699 C404.89769619 112.23981651 404.21754204 112.25221602 403.51677716 112.26499128 C401.21680558 112.30570116 398.91678325 112.3393339 396.61669922 112.37304688 C394.97134709 112.4007104 393.32600211 112.42880207 391.68066406 112.45729065 C387.1714957 112.53409069 382.66224863 112.60471335 378.15296316 112.67424965 C373.35852203 112.74915613 368.56417076 112.82944388 363.76980591 112.90905762 C355.63320891 113.04340007 347.49655938 113.17405345 339.35986328 113.30224609 C329.18487128 113.46256481 319.00997864 113.62841282 308.83510971 113.79634094 C275.77003782 114.34201306 242.70490341 114.88165067 209.63769531 115.28125 C208.74160466 115.29215384 207.84551402 115.30305769 206.92226911 115.31429195 C198.46737277 115.41707042 190.01247006 115.51788462 181.55742943 115.60809088 C160.69559781 115.83279873 139.85177149 116.31144179 119 117 C145.77347987 117.72078976 172.54595025 118.2646831 199.32589793 118.67424965 C204.30042623 118.75087561 209.27491369 118.83006727 214.24940491 118.90905762 C228.93510652 119.14181443 243.62086554 119.37086785 258.30664062 119.59893799 C269.78805543 119.77728359 281.26945013 119.9567711 292.75079638 120.13948298 C297.65793466 120.21747482 302.56508309 120.29456007 307.47227287 120.36924744 C330.65595986 120.7224066 353.82672936 121.21004697 377 122 C377 122.33 377 122.66 377 123 C375.81225322 123.00238835 374.62450644 123.00477671 373.40076733 123.00723743 C345.22348842 123.06456317 317.04627979 123.13726935 288.86909155 123.22898628 C285.40304382 123.24025482 281.93699568 123.25139321 278.47094727 123.26245117 C277.78090218 123.26465486 277.0908571 123.26685854 276.37990157 123.269129 C265.1980825 123.30452797 254.01626351 123.3293774 242.83440914 123.35034702 C231.36585024 123.37208842 219.89737837 123.40534655 208.42887813 123.44870156 C201.98505581 123.47269436 195.54131436 123.49138338 189.09744835 123.49761391 C183.03755653 123.50363742 176.97787182 123.52353774 170.91805649 123.55427551 C168.68916445 123.56309976 166.4602454 123.56676932 164.23133659 123.56500816 C161.19745408 123.56336724 158.16421191 123.57995333 155.13041687 123.60127258 C154.24034634 123.59642501 153.35027581 123.59157743 152.43323344 123.58658296 C148.04394308 123.48778764 148.04394308 123.48778764 144.27415782 125.40075654 C141.90923057 128.36906579 142.70958941 131.34082656 143 135 C145.85176441 137.85176441 147.77878012 137.25138868 151.77294922 137.25537109 C152.46907318 137.25899155 153.16519714 137.262612 153.88241577 137.26634216 C155.39603234 137.27324249 156.90967382 137.27574041 158.42330551 137.27439499 C160.81908818 137.27343171 163.21441972 137.28634811 165.61013794 137.30337524 C172.42218511 137.3497073 179.23418749 137.37425435 186.04638672 137.38085938 C190.21155503 137.38587223 194.37625413 137.41011195 198.54126358 137.44618607 C200.12884836 137.45599134 201.71649763 137.45831201 203.30410385 137.45301437 C205.52600007 137.44594893 207.74649768 137.46321316 209.96826172 137.48583984 C211.23241913 137.48868988 212.49657654 137.49153992 213.79904175 137.49447632 C217 138 217 138 219.44338989 139.80557251 C221 142 221 142 220.9375 145.625 C220 149 220 149 217 151 C214.90570831 151.25333309 214.90570831 151.25333309 212.44543457 151.25828552 C211.04479515 151.26852753 211.04479515 151.26852753 209.61585999 151.27897644 C208.59342697 151.27642349 207.57099396 151.27387054 206.51757812 151.27124023 C204.90017982 151.27908035 204.90017982 151.27908035 203.25010681 151.28707886 C200.90600544 151.29733029 198.56188123 151.30310125 196.21775818 151.30496025 C192.51164027 151.30861308 188.80579255 151.3253092 185.09973145 151.34571838 C175.89537268 151.39421546 166.69097034 151.42580652 157.48651123 151.44702148 C149.71090601 151.46496949 141.93550966 151.49430254 134.16001892 151.54106331 C131.70078056 151.55274263 129.24150791 151.55864391 126.78224182 151.55874443 C123.34876357 151.55893567 119.91581778 151.57714261 116.48242188 151.59936523 C115.45998886 151.59478806 114.43755585 151.59021088 113.38414001 151.585495 C112.4503804 151.59514282 111.51662079 151.60479065 110.55456543 151.61473083 C109.33672993 151.61774783 109.33672993 151.61774783 108.09429169 151.62082577 C105.45257451 152.0991121 104.5628945 152.83844193 103 155 C102.66645597 158.58375742 102.66645597 158.58375742 103 162 C104.72659251 163.72659251 107.04233601 163.14338105 109.39723206 163.15821838 C110.56817413 163.1680072 111.73911621 163.17779602 112.94554138 163.18788147 C114.88977745 163.19651466 114.88977745 163.19651466 116.87329102 163.20532227 C118.24288228 163.2148956 119.61247055 163.22490535 120.98205566 163.23532104 C124.7111973 163.26243531 128.44035168 163.28340943 132.16953778 163.30332303 C136.06266957 163.32514251 139.95576179 163.35255089 143.84886169 163.37937927 C151.22595277 163.42936094 158.60306574 163.47427939 165.98019975 163.51740164 C174.37670352 163.56672733 182.77316761 163.62166271 191.16963303 163.67708123 C208.44638537 163.79098528 225.72317451 163.89780588 243 164 C242.98187256 165.02988037 242.96374512 166.05976074 242.94506836 167.12084961 C242.9304072 168.48550988 242.91618902 169.85017496 242.90234375 171.21484375 C242.88925171 171.89204468 242.87615967 172.56924561 242.8626709 173.26696777 C242.81217492 179.90617885 244.1733075 183.88644019 248.578125 188.73828125 C252.43118781 192.37439233 255.83701562 193.94632972 261 195 C261 195.33 261 195.66 261 196 C174.87 196 88.74 196 0 196 C0 131.32 0 66.64 0 0 Z " fill="#FBFCFD" transform="translate(0,0)"/>
<path d="M0 0 C47.60155579 -0.07727525 47.60155579 -0.07727525 63.83203125 -0.05859375 C64.91273203 -0.05735441 65.99343281 -0.05611507 67.1068821 -0.05483818 C135.37420922 0.03467329 203.63843957 0.9517588 271.89783096 1.93482208 C275.65633578 1.98890049 279.41485138 2.04218544 283.17337048 2.09526074 C291.03097254 2.20629189 298.88850726 2.32120098 306.74599457 2.44007492 C309.35691628 2.47948631 311.96784564 2.51732206 314.57880402 2.55434036 C329.26546409 2.76392649 343.9286265 3.14501711 358.6033783 3.77487183 C364.78817378 4.03945118 370.97058253 4.20668513 377.16015625 4.31640625 C378.21238876 4.33718735 379.26462128 4.35796844 380.34873962 4.37937927 C383.58661932 4.4427989 386.82455075 4.50275024 390.0625 4.5625 C392.30924934 4.60588483 394.55599417 4.64950384 396.80273438 4.69335938 C402.2017743 4.79825309 407.60086122 4.90033063 413 5 C413.09765625 11.15234375 413.09765625 11.15234375 413 13 C411.14311798 14.85688202 408.06276398 14.18700709 405.57785034 14.22741699 C404.89769619 14.23981651 404.21754204 14.25221602 403.51677716 14.26499128 C401.21680558 14.30570116 398.91678325 14.3393339 396.61669922 14.37304688 C394.97134709 14.4007104 393.32600211 14.42880207 391.68066406 14.45729065 C387.1714957 14.53409069 382.66224863 14.60471335 378.15296316 14.67424965 C373.35852203 14.74915613 368.56417076 14.82944388 363.76980591 14.90905762 C355.63320891 15.04340007 347.49655938 15.17405345 339.35986328 15.30224609 C329.18487128 15.46256481 319.00997864 15.62841282 308.83510971 15.79634094 C275.77003782 16.34201306 242.70490341 16.88165067 209.63769531 17.28125 C208.74160466 17.29215384 207.84551402 17.30305769 206.92226911 17.31429195 C198.46737277 17.41707042 190.01247006 17.51788462 181.55742943 17.60809088 C160.69559781 17.83279873 139.85177149 18.31144179 119 19 C145.77347987 19.72078976 172.54595025 20.2646831 199.32589793 20.67424965 C204.30042623 20.75087561 209.27491369 20.83006727 214.24940491 20.90905762 C228.93510652 21.14181443 243.62086554 21.37086785 258.30664062 21.59893799 C269.78805543 21.77728359 281.26945013 21.9567711 292.75079638 22.13948298 C297.65793466 22.21747482 302.56508309 22.29456007 307.47227287 22.36924744 C330.65595986 22.7224066 353.82672936 23.21004697 377 24 C377 24.33 377 24.66 377 25 C375.81225322 25.00238835 374.62450644 25.00477671 373.40076733 25.00723743 C345.22348842 25.06456317 317.04627979 25.13726935 288.86909155 25.22898628 C285.40304382 25.24025482 281.93699568 25.25139321 278.47094727 25.26245117 C277.43587964 25.2657567 277.43587964 25.2657567 276.37990157 25.269129 C265.1980825 25.30452797 254.01626351 25.3293774 242.83440914 25.35034702 C231.36585024 25.37208842 219.89737837 25.40534655 208.42887813 25.44870156 C201.98505581 25.47269436 195.54131436 25.49138338 189.09744835 25.49761391 C183.03755653 25.50363742 176.97787182 25.52353774 170.91805649 25.55427551 C168.68916445 25.56309976 166.4602454 25.56676932 164.23133659 25.56500816 C161.19745408 25.56336724 158.16421191 25.57995333 155.13041687 25.60127258 C154.24034634 25.59642501 153.35027581 25.59157743 152.43323344 25.58658296 C148.04394308 25.48778764 148.04394308 25.48778764 144.27415782 27.40075654 C141.90923057 30.36906579 142.70958941 33.34082656 143 37 C145.85176441 39.85176441 147.77878012 39.25138868 151.77294922 39.25537109 C152.46907318 39.25899155 153.16519714 39.262612 153.88241577 39.26634216 C155.39603234 39.27324249 156.90967382 39.27574041 158.42330551 39.27439499 C160.81908818 39.27343171 163.21441972 39.28634811 165.61013794 39.30337524 C172.42218511 39.3497073 179.23418749 39.37425435 186.04638672 39.38085938 C190.21155503 39.38587223 194.37625413 39.41011195 198.54126358 39.44618607 C200.12884836 39.45599134 201.71649763 39.45831201 203.30410385 39.45301437 C205.52600007 39.44594893 207.74649768 39.46321316 209.96826172 39.48583984 C211.23241913 39.48868988 212.49657654 39.49153992 213.79904175 39.49447632 C217 40 217 40 219.44338989 41.80557251 C221 44 221 44 220.9375 47.625 C220 51 220 51 217 53 C214.90570831 53.25333309 214.90570831 53.25333309 212.44543457 53.25828552 C211.04479515 53.26852753 211.04479515 53.26852753 209.61585999 53.27897644 C208.59342697 53.27642349 207.57099396 53.27387054 206.51757812 53.27124023 C204.90017982 53.27908035 204.90017982 53.27908035 203.25010681 53.28707886 C200.90600544 53.29733029 198.56188123 53.30310125 196.21775818 53.30496025 C192.51164027 53.30861308 188.80579255 53.3253092 185.09973145 53.34571838 C175.89537268 53.39421546 166.69097034 53.42580652 157.48651123 53.44702148 C149.71090601 53.46496949 141.93550966 53.49430254 134.16001892 53.54106331 C131.70078056 53.55274263 129.24150791 53.55864391 126.78224182 53.55874443 C123.34876357 53.55893567 119.91581778 53.57714261 116.48242188 53.59936523 C115.45998886 53.59478806 114.43755585 53.59021088 113.38414001 53.585495 C112.4503804 53.59514282 111.51662079 53.60479065 110.55456543 53.61473083 C109.33672993 53.61774783 109.33672993 53.61774783 108.09429169 53.62082577 C105.45257451 54.0991121 104.5628945 54.83844193 103 57 C102.66645597 60.58375742 102.66645597 60.58375742 103 64 C104.72659251 65.72659251 107.04233601 65.14338105 109.39723206 65.15821838 C110.56817413 65.1680072 111.73911621 65.17779602 112.94554138 65.18788147 C114.88977745 65.19651466 114.88977745 65.19651466 116.87329102 65.20532227 C118.24288228 65.2148956 119.61247055 65.22490535 120.98205566 65.23532104 C124.7111973 65.26243531 128.44035168 65.28340943 132.16953778 65.30332303 C136.06266957 65.32514251 139.95576179 65.35255089 143.84886169 65.37937927 C151.22595277 65.42936094 158.60306574 65.47427939 165.98019975 65.51740164 C174.37670352 65.56672733 182.77316761 65.62166271 191.16963303 65.67708123 C208.44638537 65.79098528 225.72317451 65.89780588 243 66 C242.98187256 67.02988037 242.96374512 68.05976074 242.94506836 69.12084961 C242.9304072 70.48550988 242.91618902 71.85017496 242.90234375 73.21484375 C242.88925171 73.89204468 242.87615967 74.56924561 242.8626709 75.26696777 C242.81217492 81.90617885 244.1733075 85.88644019 248.578125 90.73828125 C252.43118781 94.37439233 255.83701562 95.94632972 261 97 C261 97.33 261 97.66 261 98 C174.87 98 88.74 98 0 98 C0 65.66 0 33.32 0 0 Z " fill="#FCFCFD" transform="translate(0,98)"/>
<path d="M0 0 C34.32 0 68.64 0 104 0 C104 64.68 104 129.36 104 196 C76.61 196 49.22 196 21 196 C23.24979172 194.87510414 25.51077203 193.77022373 27.8046875 192.73828125 C36.43037977 188.73271168 41.32489096 185.00592203 45.375 176.375 C47.7715737 169.74144579 48.63582568 162.23035247 46.046875 155.53515625 C42.68633291 149.82436163 38.3195799 146.08279112 32 144 C24.81068017 143.42213505 17.78693955 143.41449922 11 146 C13.56714893 142.86237353 16.14088306 142.06396215 20 141 C28.06721384 140.24424794 36.42132682 139.64017838 43 145 C46.62806407 148.51392273 50.86242375 152.67533492 51.08163452 157.97277832 C51.05442301 159.98185221 51.02721151 161.99092611 51 164 C56.49985921 163.95590686 61.9985638 163.88613795 67.49780273 163.79248047 C69.36880304 163.76424263 71.23992326 163.7430421 73.11108398 163.72900391 C75.79994221 163.70761283 78.48735438 163.66098455 81.17578125 163.609375 C82.01337479 163.60814636 82.85096832 163.60691772 83.71394348 163.60565186 C88.29906091 163.54593486 88.29906091 163.54593486 92.01025391 161.12084961 C93.15339535 158.67130108 93.6561339 156.48346942 94.0625 153.8125 C94.47265625 151.14453125 94.47265625 151.14453125 95 149 C95.66 148.67 96.32 148.34 97 148 C97.33 147.01 97.66 146.02 98 145 C93.71 145 89.42 145 85 145 C85 143.35 85 141.7 85 140 C88.63 140 92.26 140 96 140 C96.72038753 135.18145045 97.43212662 130.36172743 98.13623047 125.54077148 C98.37642845 123.90436229 98.61889691 122.26828457 98.86376953 120.63256836 C99.21739287 118.26762205 99.56255788 115.90156381 99.90625 113.53515625 C100.0156189 112.81602554 100.12498779 112.09689484 100.2376709 111.35597229 C101.83627155 100.28280909 101.83627155 100.28280909 97.921875 90.1015625 C97.26155273 89.05492432 96.60123047 88.00828613 95.92089844 86.92993164 C95.20450195 85.8393042 94.48810547 84.74867676 93.75 83.625 C93.01144862 82.46922806 92.27481478 81.3122287 91.54003906 80.15405273 C90.06583711 77.83679988 88.58119304 75.52686685 87.0859375 73.22314453 C84.75460554 69.62082191 82.46848968 65.99211282 80.18969727 62.35644531 C78.76788095 60.09099065 77.3367909 57.8316932 75.90234375 55.57421875 C73.80298533 52.26944557 71.71330767 48.95875923 69.62890625 45.64453125 C69.07428711 44.76337646 68.51966797 43.88222168 67.94824219 42.97436523 C66.87899357 41.27521747 65.81059783 39.57553262 64.74316406 37.87524414 C64.26717773 37.11977295 63.79119141 36.36430176 63.30078125 35.5859375 C62.87966064 34.9161084 62.45854004 34.2462793 62.0246582 33.55615234 C61.08995788 32.02272194 61.08995788 32.02272194 60 31 C58.37420782 30.87718048 56.74322996 30.82217496 55.11303711 30.79467773 C54.07203354 30.77473251 53.03102997 30.75478729 51.95848083 30.73423767 C50.8262056 30.71752518 49.69393036 30.70081268 48.52734375 30.68359375 C47.37456436 30.66281265 46.22178497 30.64203156 45.03407288 30.62062073 C41.33527843 30.55500036 37.63641041 30.49618245 33.9375 30.4375 C31.43684121 30.39432665 28.93618999 30.35071276 26.43554688 30.30664062 C20.29044338 30.19930632 14.14526596 30.09756357 8 30 C8.13929932 29.11376953 8.27859863 28.22753906 8.42211914 27.31445312 C8.60379639 26.14849609 8.78547363 24.98253906 8.97265625 23.78125 C9.15320557 22.62689453 9.33375488 21.47253906 9.51977539 20.28320312 C10.10496897 16.28234736 10.50292526 13.02340206 10 9 C7.16435523 5.35417101 3.97380181 3.27074389 0 1 C0 0.67 0 0.34 0 0 Z " fill="#FCFEFF" transform="translate(480,0)"/>
<path d="M0 0 C5.72391775 3.28158711 8.61912359 8.30074718 11.5 14.0625 C11.5 16.3725 11.5 18.6825 11.5 21.0625 C69.58 21.0625 127.66 21.0625 187.5 21.0625 C187.83 26.3425 188.16 31.6225 188.5 37.0625 C190.92804579 44.54897453 194.82748465 47.20399204 201.5 51.0625 C202.49 51.7225 203.48 52.3825 204.5 53.0625 C131.24 53.0625 57.98 53.0625 -17.5 53.0625 C-15.5 51.0625 -15.5 51.0625 -12 50 C-5.05738641 47.44552287 0.42444594 42.4753238 4.24609375 36.19140625 C7.59579727 28.89417677 9.1936238 21.60698908 6.80078125 13.7734375 C4.10500416 7.6994081 -0.3608238 3.6543088 -6.5 1.0625 C-8.6215586 0.79071919 -8.6215586 0.79071919 -10.828125 0.8671875 C-11.62734375 0.87363281 -12.4265625 0.88007813 -13.25 0.88671875 C-14.075 0.90347656 -14.9 0.92023438 -15.75 0.9375 C-17.01070313 0.95103516 -17.01070313 0.95103516 -18.296875 0.96484375 C-20.36470604 0.98834183 -22.43238995 1.02421092 -24.5 1.0625 C-18.80406937 -4.63343063 -6.80412641 -3.01369983 0 0 Z " fill="#FEFEFF" transform="translate(287.5,142.9375)"/>
<path d="M0 0 C1.08991241 -0.0133136 2.17982483 -0.0266272 3.30276489 -0.04034424 C5.60753635 -0.06058703 7.9124249 -0.06997859 10.21728516 -0.06933594 C13.73927551 -0.07807898 17.25624168 -0.15069154 20.77734375 -0.2265625 C23.01821204 -0.23830035 25.25910412 -0.24623813 27.5 -0.25 C28.55017303 -0.27874207 29.60034607 -0.30748413 30.68234253 -0.33709717 C37.81182882 -0.24826301 37.81182882 -0.24826301 40.78994751 2.31039429 C42.35557836 4.35820211 43.63565741 6.41811296 44.8828125 8.671875 C45.54104004 9.66719238 46.19926758 10.66250977 46.87744141 11.68798828 C47.44897949 12.61337402 48.02051758 13.53875977 48.609375 14.4921875 C49.24875 15.52214844 49.888125 16.55210938 50.546875 17.61328125 C51.51753906 19.18916016 51.51753906 19.18916016 52.5078125 20.796875 C53.81169957 22.90414131 55.11636356 25.01092714 56.421875 27.1171875 C57.02265869 28.09051025 57.62344238 29.06383301 58.24243164 30.06665039 C59.56494001 32.16703539 60.92956468 34.20818583 62.35546875 36.23828125 C63.8828125 38.671875 63.8828125 38.671875 63.6953125 41.484375 C62.8828125 43.671875 62.8828125 43.671875 61.8828125 44.671875 C59.39878038 44.78283958 56.94228538 44.8292606 54.45727539 44.83300781 C53.29144676 44.84045517 53.29144676 44.84045517 52.10206604 44.84805298 C49.51985809 44.86271016 46.93771154 44.86948211 44.35546875 44.875 C42.56806943 44.88074807 40.78067014 44.88650584 38.99327087 44.89227295 C35.24136059 44.90279276 31.4894718 44.90862915 27.73754883 44.91210938 C22.92070151 44.91759935 18.10413613 44.9416339 13.28737736 44.97008133 C9.59430602 44.98866776 5.90130318 44.99391114 2.20818901 44.99544525 C0.43190403 44.99848085 -1.34437949 45.00653969 -3.12061882 45.01963043 C-5.60138533 45.0366097 -8.08145548 45.03483105 -10.56225586 45.02832031 C-11.30155334 45.0375351 -12.04085083 45.04674988 -12.80255127 45.0562439 C-14.84629822 45.03936768 -14.84629822 45.03936768 -18.1171875 44.671875 C-20.37596255 41.28371242 -20.30039423 40.68539501 -19.85546875 36.82421875 C-19.74541504 35.84565918 -19.63536133 34.86709961 -19.52197266 33.85888672 C-19.38839355 32.80717285 -19.25481445 31.75545898 -19.1171875 30.671875 C-18.98489746 29.59309082 -18.85260742 28.51430664 -18.71630859 27.40283203 C-18.27962243 24.00775783 -17.79742955 20.62173505 -17.3046875 17.234375 C-17.15193359 16.07744141 -16.99917969 14.92050781 -16.84179688 13.72851562 C-16.67873047 12.61798828 -16.51566406 11.50746094 -16.34765625 10.36328125 C-16.20739014 9.36498291 -16.06712402 8.36668457 -15.92260742 7.33813477 C-13.47286388 -0.77148911 -7.30369983 0.03083879 0 0 Z " fill="#FDFEFF" transform="translate(500.1171875,42.328125)"/>
<path d="M0 0 C1.27722427 -0.01272446 2.55444855 -0.02544891 3.87037659 -0.03855896 C5.28358645 -0.03237666 6.6967945 -0.02577063 8.11000061 -0.01878357 C9.60000463 -0.02584176 11.09000147 -0.03458635 12.57998657 -0.04489136 C16.62552828 -0.0674074 20.67067918 -0.06444051 24.71625972 -0.05556989 C28.09357728 -0.05046217 31.47082126 -0.05775083 34.84813124 -0.06504196 C42.81569469 -0.08204817 50.78306666 -0.07846813 58.75062561 -0.06175232 C66.97030468 -0.04483054 75.18945271 -0.06066439 83.40907377 -0.0929752 C90.46653897 -0.1196666 97.52383882 -0.12694834 104.58134943 -0.11846012 C108.79633624 -0.11352948 113.01100351 -0.11575357 117.22595024 -0.13624763 C121.1898137 -0.15459789 125.15291312 -0.14865499 129.11673546 -0.12404823 C130.57077401 -0.1190381 132.0248707 -0.12253554 133.47886276 -0.13519669 C135.46494309 -0.15112188 137.45120873 -0.13315859 139.43725586 -0.11352539 C141.1038999 -0.11264593 141.1038999 -0.11264593 142.80421352 -0.1117487 C146.77110208 0.72269939 148.28079426 2.39098822 150.78211975 5.5146637 C151.55708339 9.7769637 151.12677481 11.84555061 149.14663696 15.68978882 C147.12136321 17.97153696 145.93971903 18.48431278 142.9064312 19.06847191 C139.03930583 19.292935 135.19578079 19.31474427 131.32484436 19.27516174 C129.83306603 19.28165751 128.34129699 19.29072038 126.84954834 19.30215454 C122.80392541 19.32521933 118.75924679 19.31052781 114.71365428 19.28768516 C110.47942823 19.26876281 106.24526531 19.27992829 102.01101685 19.28659058 C94.9016063 19.29292955 87.79257399 19.27466845 80.6832428 19.24195862 C72.46292525 19.20445002 64.24332371 19.20624937 56.02296823 19.22899979 C48.11475575 19.24994343 40.20680801 19.24267896 32.29860115 19.22268105 C28.93298855 19.21469276 25.56759974 19.21668909 22.20199394 19.22670555 C18.23970775 19.2372512 14.27825678 19.22314705 10.31610298 19.18996239 C8.86166276 19.1817498 7.40714608 19.18204561 5.95271301 19.19144058 C3.9684736 19.20285082 1.98412529 19.18045856 0 19.15631104 C-1.110719 19.15312709 -2.22143801 19.14994314 -3.36581516 19.14666271 C-6.21788025 18.5146637 -6.21788025 18.5146637 -8.57329464 16.11933613 C-10.27722157 13.42067972 -10.76163466 12.09701229 -10.71788025 8.9521637 C-10.72819275 8.20837463 -10.73850525 7.46458557 -10.74913025 6.69825745 C-9.35637161 0.97360982 -5.32656735 0.01346088 0 0 Z " fill="#073585" transform="translate(146.21788024902344,-0.5146636962890625)"/>
<path d="M0 0 C-0.33 3.3 -0.66 6.6 -1 10 C-47.90467299 10.31495906 -94.78955297 9.80075933 -141.6875 9.0625 C-153.52211553 8.87631168 -165.3567355 8.69046331 -177.19140625 8.5078125 C-177.92484599 8.49647506 -178.65828573 8.48513762 -179.41395092 8.47345662 C-210.31664937 7.99661145 -241.21956771 7.68427854 -272.125 7.4375 C-274.44273894 7.41889583 -276.7604778 7.4002802 -279.07821655 7.38165283 C-280.21162696 7.37254694 -281.34503736 7.36344105 -282.51279354 7.35405922 C-288.07363601 7.30929896 -293.63447549 7.26418275 -299.1953125 7.21875 C-300.79273379 7.20576433 -300.79273379 7.20576433 -302.42242622 7.19251633 C-323.61609886 7.0186692 -344.80802167 6.7548843 -366 6.4375 C-366.75024696 6.42626476 -367.50049393 6.41502953 -368.27347565 6.40345383 C-376.84907313 6.27453851 -385.42458691 6.14069209 -394 6 C-394 5.67 -394 5.34 -394 5 C-390.14319968 4.29188693 -386.46021296 3.86417051 -382.54083252 3.81054688 C-381.47754573 3.79379127 -380.41425894 3.77703566 -379.31875134 3.7597723 C-378.16329972 3.74623494 -377.00784811 3.73269758 -375.81738281 3.71875 C-374.58296857 3.7006833 -373.34855433 3.6826166 -372.07673359 3.66400242 C-368.66967212 3.61514174 -365.26260376 3.57041776 -361.85546422 3.52759099 C-358.20730546 3.48082498 -354.55921794 3.42899748 -350.91111755 3.37791443 C-343.82225376 3.27957243 -336.73332951 3.18654512 -329.64436847 3.09551126 C-323.88696137 3.02148884 -318.12958553 2.94535118 -312.3722229 2.86795044 C-264.13717706 2.22038999 -215.90225266 1.70656351 -167.66430664 1.32641602 C-163.1512029 1.2907164 -158.63810072 1.25482909 -154.125 1.21875 C-153.03982527 1.21009855 -151.95465054 1.20144711 -150.83659172 1.19253349 C-128.84686611 1.01533647 -106.85943022 0.72287983 -84.87137985 0.40390015 C-56.57904031 -0.00541416 -28.29563815 -0.1227126 0 0 Z " fill="#0C3886" transform="translate(415,92)"/>
<path d="M0 0 C5.2381345 0.01047855 10.47627441 0.01484848 15.7144165 0.01983643 C25.8784924 0.03036323 36.04254552 0.04728439 46.206604 0.06866455 C45.876604 3.36866455 45.546604 6.66866455 45.206604 10.06866455 C-31.14176305 10.34133729 -107.47257688 9.26291039 -183.80783081 7.93597412 C-218.63548834 7.33066699 -253.46236257 6.81005184 -288.293396 6.44366455 C-289.27328239 6.43335205 -290.25316879 6.42303955 -291.26274872 6.41241455 C-302.77290717 6.29180194 -314.28311321 6.17676697 -325.793396 6.06866455 C-325.463396 5.40866455 -325.133396 4.74866455 -324.793396 4.06866455 C-323.92895087 4.05927888 -323.06450575 4.04989321 -322.17386532 4.04022312 C-300.79637602 3.80800812 -279.41890695 3.57400033 -258.04145718 3.33817387 C-247.70202442 3.22415387 -237.36258631 3.11067604 -227.02313232 2.99859619 C-143.81955177 2.24758845 -143.81955177 2.24758845 -60.63519096 0.44404602 C-40.42757238 -0.14583165 -20.21423047 -0.04494121 0 0 Z " fill="#0F3A88" transform="translate(371.79339599609375,71.93133544921875)"/>
<path d="M0 0 C3.65732141 0.01072155 7.31465189 0.01489552 10.97198486 0.01983643 C17.99479031 0.03018167 25.01756384 0.04694598 32.04034424 0.06866455 C31.71034424 3.36866455 31.38034424 6.66866455 31.04034424 10.06866455 C-6.19719868 10.25011454 -43.41794204 10.05603334 -80.65106201 9.4475708 C-82.1007397 9.42388971 -82.1007397 9.42388971 -83.57970381 9.39973021 C-95.536388 9.20353722 -107.49290556 8.99807578 -119.4493717 8.78906 C-130.52238215 8.59566681 -141.59550816 8.40924344 -152.66864014 8.22296143 C-156.65109324 8.15589549 -160.63354551 8.08877989 -164.61599731 8.02163696 C-165.59420452 8.00514961 -166.57241174 7.98866225 -167.58026159 7.97167528 C-174.37069295 7.85711846 -181.16110401 7.74140566 -187.95150757 7.62521362 C-220.95356572 7.06115478 -253.95628628 6.54962312 -286.95965576 6.06866455 C-286.95965576 5.73866455 -286.95965576 5.40866455 -286.95965576 5.06866455 C-255.08438383 3.84302134 -223.21894106 2.90095512 -191.32293701 2.4710083 C-190.19300331 2.45573617 -190.19300331 2.45573617 -189.04024267 2.44015551 C-179.7847822 2.31584948 -170.52921484 2.20106356 -161.27358234 2.09038889 C-148.07712708 1.93247409 -134.88082326 1.76226325 -121.68452263 1.5919857 C-118.66150412 1.55301823 -115.63847997 1.51454086 -112.61544991 1.47648048 C-93.8269797 1.23951326 -75.04201598 0.93155112 -56.25653076 0.51397705 C-37.5014497 0.0981605 -18.7592741 -0.06154945 0 0 Z " fill="#093585" transform="translate(379.95965576171875,111.93133544921875)"/>
<path d="M0 0 C2.28189998 0.00506109 4.56380114 0.0096153 6.84570312 0.01367188 C12.20966713 0.02423189 17.57356837 0.04119765 22.9375 0.0625 C22.6075 3.3625 22.2775 6.6625 21.9375 10.0625 C-31.07681314 10.28866459 -84.05643131 9.74166396 -137.06174362 8.78289545 C-144.98852734 8.63989228 -152.91541379 8.50348457 -160.84234315 8.36882645 C-170.56237827 8.2037022 -180.28234775 8.03495525 -190.0022943 7.86470294 C-192.71584076 7.81734331 -195.4293962 7.7705301 -198.14295387 7.72381783 C-219.79030474 7.34948393 -241.42559249 6.8398256 -263.0625 6.0625 C-263.0625 5.7325 -263.0625 5.4025 -263.0625 5.0625 C-234.91918155 3.79945651 -206.78156794 2.87743243 -178.61328125 2.46484375 C-177.91972707 2.45466233 -177.2261729 2.44448091 -176.51160192 2.43399096 C-167.95845437 2.30929815 -159.40518491 2.19467095 -150.85184276 2.08422434 C-139.38106808 1.935948 -127.91045686 1.77540505 -116.43984169 1.61533183 C-112.9357934 1.56645168 -109.4317408 1.51794383 -105.92767525 1.47031593 C-87.69483233 1.22229318 -69.46462109 0.90596964 -51.234375 0.5078125 C-34.15220144 0.13559433 -17.08686492 -0.07020729 0 0 Z " fill="#0C3887" transform="translate(398.0625,51.9375)"/>
<path d="M0 0 C0.84271957 -0.0087616 1.68543915 -0.01752319 2.55369568 -0.02655029 C5.33775405 -0.0485469 8.12022253 -0.03399114 10.90429688 -0.01708984 C12.83956202 -0.02045791 14.77482511 -0.02531046 16.71008301 -0.03158569 C20.76542303 -0.03895737 24.82021229 -0.02824201 28.87548828 -0.00488281 C34.0746367 0.02360511 39.2724947 0.00720272 44.47159576 -0.02274513 C48.46764861 -0.04081013 52.46339534 -0.03506374 56.4594574 -0.02210617 C58.37642062 -0.01876995 60.29341161 -0.02286682 62.21034241 -0.03450394 C64.8896753 -0.04719965 67.56691674 -0.0278549 70.24609375 0 C71.4353672 -0.01518173 71.4353672 -0.01518173 72.64866638 -0.03067017 C76.50121744 0.04355959 78.25351694 0.30327946 81.1192627 2.96865845 C83.09166062 6.48159698 83.12011216 8.67045037 82.62304688 12.64697266 C80.42304687 17.24697266 80.42304687 17.24697266 77.62304688 18.64697266 C74.92347787 18.75575581 72.24931206 18.8042955 69.54907227 18.80810547 C68.71479202 18.81307037 67.88051178 18.81803528 67.02095032 18.82315063 C64.25419295 18.83778604 61.48749288 18.844576 58.72070312 18.85009766 C56.80260719 18.85584729 54.88451129 18.86160505 52.96641541 18.86737061 C48.94220715 18.87788405 44.91801889 18.88372469 40.89379883 18.88720703 C35.73069719 18.8926972 30.56785856 18.91673494 25.40483952 18.94517899 C21.44236979 18.96377655 17.47996384 18.96900939 13.51745415 18.97054291 C11.61360674 18.97357571 9.70976062 18.98162526 7.80595589 18.99472809 C5.14590384 19.01173106 2.48649993 19.00992274 -0.17358398 19.00341797 C-0.96381958 19.01263275 -1.75405518 19.02184753 -2.5682373 19.03134155 C-7.87493263 18.99056931 -7.87493263 18.99056931 -10.3271637 17.31219482 C-12.7185218 13.51891741 -12.7532308 10.01179365 -12.37695312 5.64697266 C-9.29907701 0.12042067 -5.87272366 -0.07496856 0 0 Z " fill="#3DB8FF" transform="translate(95.376953125,30.35302734375)"/>
<path d="M0 0 C3.3 0 6.6 0 10 0 C9.45665138 9.14098567 8.29537691 18.04139921 6.75 27.0625 C4.77838315 38.82944553 3.04021185 50.6149632 1.4375 62.4375 C-0.33036047 75.44323989 -2.31299887 88.38953405 -4.54589844 101.32470703 C-5.31861694 105.87709913 -6.03524851 110.43820371 -6.75 115 C-6.87777832 115.81476807 -7.00555664 116.62953613 -7.13720703 117.46899414 C-7.42569595 119.31252351 -7.71299937 121.15623835 -8 123 C-11.3 123 -14.6 123 -18 123 C-17.02611262 111.41586589 -15.59585553 100.01373344 -13.60253906 88.56054688 C-12.22380906 80.5613831 -11.07697711 72.54496595 -10 64.5 C-8.67028207 54.6135537 -7.18988199 44.77200856 -5.50878906 34.93945312 C-3.52440104 23.31604765 -1.76750635 11.65802058 0 0 Z " fill="#F8FCFF" transform="translate(469,0)"/>
<path d="M0 0 C1.50312744 -0.00717545 1.50312744 -0.00717545 3.03662109 -0.01449585 C5.15138319 -0.01789228 7.26619798 -0.00870791 9.38085938 0.01220703 C12.61447421 0.03897537 15.8446179 0.01244957 19.078125 -0.01953125 C21.13542431 -0.01622711 23.19272147 -0.00982078 25.25 0 C26.21470215 -0.01012115 27.1794043 -0.02024231 28.17333984 -0.03067017 C32.78106063 0.04962427 34.9542952 0.1636637 38.73828125 2.98681641 C41.22747988 6.51897895 41.30615765 8.4257482 40.625 12.6640625 C38.82937595 15.41735271 37.57245078 17.19033711 34.625 18.6640625 C33.23790176 18.77818683 31.84568703 18.83335835 30.45410156 18.85693359 C29.59270569 18.87299652 28.73130981 18.88905945 27.84381104 18.90560913 C23.8975097 18.95010796 19.95137654 18.99113583 16.00488281 19.01416016 C13.92534178 19.03070565 11.84585728 19.057977 9.76660156 19.09619141 C6.76597637 19.1510518 3.76668467 19.17284951 0.765625 19.1875 C-0.6221817 19.22150406 -0.6221817 19.22150406 -2.0380249 19.25619507 C-6.45141016 19.24180348 -9.44484024 19.08814705 -12.96118164 16.26025391 C-15.375 13.6640625 -15.375 13.6640625 -16.13671875 11.6015625 C-16.11222656 10.9621875 -16.08773437 10.3228125 -16.0625 9.6640625 C-16.06636719 9.0246875 -16.07023438 8.3853125 -16.07421875 7.7265625 C-13.39090551 -0.18846203 -7.09686516 -0.07445663 0 0 Z " fill="#083585" transform="translate(208.375,30.3359375)"/>
<path d="M0 0 C2.9375 2.4375 2.9375 2.4375 5 5 C5.33 5.33 5.66 5.66 6 6 C6.51636861 12.09314959 6.06682422 15.1424044 2 20 C-1.31921804 22.91688858 -3.93434091 23.90132786 -8.375 24.3125 C-12.60663216 23.94770412 -14.07633558 23.00965455 -17 20 C-18.25306214 16.24081358 -18.76182073 12.88742164 -18 9 C-13.94084167 2.20388476 -8.13747529 -1.64687 0 0 Z " fill="#F3F9FD" transform="translate(275,157)"/>
<path d="M0 0 C5.53846154 3.07692308 5.53846154 3.07692308 7 6 C7.3501723 11.34012755 7.48069602 14.67913597 4 19 C-0.25496602 22.73606772 -3.07016261 24.54700522 -8.890625 24.47265625 C-12.31251443 23.70589955 -13.90018575 21.75423338 -15.92578125 18.99609375 C-17.69228451 15.71360951 -17.71403606 13.63509265 -17 10 C-13.31599316 2.75179143 -8.37426706 -1.02841876 0 0 Z " fill="#F4F9FD" transform="translate(506,157)"/>
<path d="M0 0 C4.29 0 8.58 0 13 0 C12.183809 9.04088496 10.94768668 18.01299597 9.6875 27 C9.57639893 27.79578461 9.46529785 28.59156921 9.35083008 29.41146851 C7.36422247 43.62861804 5.2496796 57.82197439 3 72 C2.78578844 73.3611368 2.57176826 74.72230372 2.35791016 76.08349609 C1.79200477 79.6834802 1.22203064 83.28279966 0.64916992 86.88168335 C0.4261837 88.28470568 0.20416545 89.68788223 -0.0168457 91.09121704 C-0.32436669 93.04049672 -0.6366828 94.9890181 -0.94921875 96.9375 C-1.12799561 98.06027344 -1.30677246 99.18304688 -1.4909668 100.33984375 C-2 103 -2 103 -3 105 C-3.99 105 -4.98 105 -6 105 C-5.44851558 93.51391078 -3.80460629 82.34164816 -2 71 C-1.51207557 67.90770086 -1.02568088 64.81516114 -0.5390625 61.72265625 C0.37862983 55.89443043 1.29884695 50.06661628 2.22357178 44.23950195 C2.59109664 41.92029953 2.95666752 39.60079527 3.32202148 37.28125 C3.7451445 34.59734939 4.17779059 31.91568126 4.61743164 29.234375 C5.55843609 23.40426615 6.29368317 17.78348429 6.3125 11.875 C6.32925781 10.63492187 6.34601563 9.39484375 6.36328125 8.1171875 C6.26733811 5.04950448 6.26733811 5.04950448 4.66796875 3.1953125 C3.13527885 2.09694456 1.56892796 1.04595197 0 0 Z " fill="#EBF7FF" transform="translate(450,0)"/>
<path d="M0 0 C1.48831242 0.00667405 2.97660807 0.01863442 4.46484375 0.03515625 C5.22345703 0.03966797 5.98207031 0.04417969 6.76367188 0.04882812 C8.64326246 0.06064945 10.52281274 0.07858547 12.40234375 0.09765625 C12.07234375 1.74765625 11.74234375 3.39765625 11.40234375 5.09765625 C6.45234375 5.09765625 1.50234375 5.09765625 -3.59765625 5.09765625 C-3.92765625 3.77765625 -4.25765625 2.45765625 -4.59765625 1.09765625 C-3.59765625 0.09765625 -3.59765625 0.09765625 0 0 Z " fill="#F5FBFF" transform="translate(493.59765625,92.90234375)"/>
<path d="M0 0 C0.94875 0.04125 1.8975 0.0825 2.875 0.125 C3.625 2.375 3.625 2.375 3.875 5.125 C2.1875 7.5 2.1875 7.5 -0.125 9.125 C-2.34344626 8.93484746 -3.54022155 8.70977845 -5.125 7.125 C-5.3125 4.6875 -5.3125 4.6875 -5.125 2.125 C-3.125 0.125 -3.125 0.125 0 0 Z " fill="#0F3887" transform="translate(502.125,164.875)"/>
<path d="M0 0 C3.0625 -0.25 3.0625 -0.25 6 0 C7 1 7 1 7.25 3.375 C7 6 7 6 5.8125 7.875 C4 9 4 9 1.3125 8.6875 C0.549375 8.460625 -0.21375 8.23375 -1 8 C-1.625 5.6875 -1.625 5.6875 -2 3 C-1.34 2.01 -0.68 1.02 0 0 Z " fill="#113A88" transform="translate(266,165)"/>
<path d="M0 0 C1.97226562 0.00966797 1.97226562 0.00966797 3.984375 0.01953125 C7.25 0.1875 7.25 0.1875 9.25 1.1875 C9.25 2.1775 9.25 3.1675 9.25 4.1875 C8.22519531 3.94580078 8.22519531 3.94580078 7.1796875 3.69921875 C-0.70600664 2.32185084 -9.22316292 2.32013349 -16.75 5.1875 C-12.45666953 -0.05990391 -6.34414353 -0.06895808 0 0 Z " fill="#C7EAFF" transform="translate(507.75,140.8125)"/>
<path d="M0 0 C1.2375 -0.01417969 2.475 -0.02835938 3.75 -0.04296875 C7 0.1875 7 0.1875 10 2.1875 C9.34 2.8475 8.68 3.5075 8 4.1875 C7.34 3.8575 6.68 3.5275 6 3.1875 C4.62451844 3.10441362 3.24514204 3.08013984 1.8671875 3.08984375 C1.06152344 3.09306641 0.25585938 3.09628906 -0.57421875 3.09960938 C-1.83685547 3.11217773 -1.83685547 3.11217773 -3.125 3.125 C-4.39923828 3.13176758 -4.39923828 3.13176758 -5.69921875 3.13867188 C-7.79950909 3.15047126 -9.8997633 3.16840694 -12 3.1875 C-8.43370709 -0.37879291 -4.81655882 0.02508624 0 0 Z " fill="#CFEDFF" transform="translate(275,140.8125)"/>
</svg>
